<mxfile host="app.diagrams.net" agent="Mozilla/5.0 (Windows NT 10.0; Win64; x64) AppleWebKit/537.36 (KHTML, like Gecko) Chrome/132.0.0.0 Safari/537.36" version="26.0.14">
  <diagram name="Page-1" id="nvFW_fByLsZxoGHITgzS">
    <mxGraphModel dx="2819" dy="1978" grid="1" gridSize="10" guides="1" tooltips="1" connect="1" arrows="1" fold="1" page="1" pageScale="1" pageWidth="850" pageHeight="1100" math="0" shadow="0">
      <root>
        <mxCell id="0" />
        <mxCell id="1" parent="0" />
        <mxCell id="JhW_JWO5XfalTPSPjxCR-1" value="Home Page" style="rounded=0;whiteSpace=wrap;html=1;" vertex="1" parent="1">
          <mxGeometry x="300" y="40" width="120" height="60" as="geometry" />
        </mxCell>
        <mxCell id="JhW_JWO5XfalTPSPjxCR-2" value="" style="endArrow=classic;html=1;rounded=0;exitX=0;exitY=0.5;exitDx=0;exitDy=0;" edge="1" parent="1" source="JhW_JWO5XfalTPSPjxCR-1">
          <mxGeometry width="50" height="50" relative="1" as="geometry">
            <mxPoint x="200" y="30" as="sourcePoint" />
            <mxPoint x="199.5" y="120" as="targetPoint" />
            <Array as="points">
              <mxPoint x="200" y="70" />
            </Array>
          </mxGeometry>
        </mxCell>
        <mxCell id="JhW_JWO5XfalTPSPjxCR-3" value="Enter playlist information.&lt;div&gt;&amp;nbsp;Name, is it public/private, description, create it from scratch or use existing playlist(s) as reference&lt;/div&gt;" style="rounded=0;whiteSpace=wrap;html=1;" vertex="1" parent="1">
          <mxGeometry x="112.5" y="120" width="175" height="90" as="geometry" />
        </mxCell>
        <mxCell id="JhW_JWO5XfalTPSPjxCR-4" value="User clicks create playlist" style="text;html=1;align=center;verticalAlign=middle;resizable=0;points=[];autosize=1;strokeColor=none;fillColor=none;" vertex="1" parent="1">
          <mxGeometry x="30" y="60" width="160" height="30" as="geometry" />
        </mxCell>
        <mxCell id="JhW_JWO5XfalTPSPjxCR-5" value="User selects which playlist(s) to merge into new playlist" style="rounded=0;whiteSpace=wrap;html=1;" vertex="1" parent="1">
          <mxGeometry x="60" y="260" width="120" height="60" as="geometry" />
        </mxCell>
        <mxCell id="JhW_JWO5XfalTPSPjxCR-6" value="" style="endArrow=classic;html=1;rounded=0;exitX=0.5;exitY=1;exitDx=0;exitDy=0;entryX=0.5;entryY=0;entryDx=0;entryDy=0;" edge="1" parent="1" source="JhW_JWO5XfalTPSPjxCR-3" target="JhW_JWO5XfalTPSPjxCR-5">
          <mxGeometry width="50" height="50" relative="1" as="geometry">
            <mxPoint x="220" y="209.99999999999997" as="sourcePoint" />
            <mxPoint x="476" y="388.98" as="targetPoint" />
          </mxGeometry>
        </mxCell>
        <mxCell id="JhW_JWO5XfalTPSPjxCR-7" value="New Playlist page" style="rounded=0;whiteSpace=wrap;html=1;" vertex="1" parent="1">
          <mxGeometry x="220" y="260" width="120" height="60" as="geometry" />
        </mxCell>
        <mxCell id="JhW_JWO5XfalTPSPjxCR-8" value="" style="endArrow=classic;html=1;rounded=0;exitX=0.5;exitY=1;exitDx=0;exitDy=0;entryX=0.5;entryY=0;entryDx=0;entryDy=0;" edge="1" parent="1" source="JhW_JWO5XfalTPSPjxCR-3" target="JhW_JWO5XfalTPSPjxCR-7">
          <mxGeometry width="50" height="50" relative="1" as="geometry">
            <mxPoint x="210" y="220" as="sourcePoint" />
            <mxPoint x="148" y="270" as="targetPoint" />
          </mxGeometry>
        </mxCell>
        <mxCell id="JhW_JWO5XfalTPSPjxCR-17" value="existing playlists selected" style="text;html=1;align=center;verticalAlign=middle;resizable=0;points=[];autosize=1;strokeColor=none;fillColor=none;" vertex="1" parent="1">
          <mxGeometry x="-20" y="220" width="160" height="30" as="geometry" />
        </mxCell>
        <mxCell id="JhW_JWO5XfalTPSPjxCR-18" value="create from scratch" style="text;html=1;align=center;verticalAlign=middle;resizable=0;points=[];autosize=1;strokeColor=none;fillColor=none;" vertex="1" parent="1">
          <mxGeometry x="260" y="220" width="130" height="30" as="geometry" />
        </mxCell>
        <mxCell id="JhW_JWO5XfalTPSPjxCR-19" value="Actor" style="shape=umlActor;verticalLabelPosition=bottom;verticalAlign=top;html=1;outlineConnect=0;" vertex="1" parent="1">
          <mxGeometry x="345" y="-110" width="30" height="60" as="geometry" />
        </mxCell>
        <mxCell id="JhW_JWO5XfalTPSPjxCR-20" value="" style="endArrow=classic;html=1;rounded=0;entryX=0.5;entryY=0;entryDx=0;entryDy=0;" edge="1" parent="1" target="JhW_JWO5XfalTPSPjxCR-1">
          <mxGeometry width="50" height="50" relative="1" as="geometry">
            <mxPoint x="360" y="-30" as="sourcePoint" />
            <mxPoint x="370" y="-20" as="targetPoint" />
          </mxGeometry>
        </mxCell>
        <mxCell id="JhW_JWO5XfalTPSPjxCR-21" value="Open site" style="text;html=1;align=center;verticalAlign=middle;resizable=0;points=[];autosize=1;strokeColor=none;fillColor=none;" vertex="1" parent="1">
          <mxGeometry x="370" y="-12" width="70" height="30" as="geometry" />
        </mxCell>
        <mxCell id="JhW_JWO5XfalTPSPjxCR-26" value="" style="endArrow=none;dashed=1;html=1;dashPattern=1 3;strokeWidth=2;rounded=0;entryX=0.5;entryY=1;entryDx=0;entryDy=0;entryPerimeter=0;" edge="1" parent="1" target="JhW_JWO5XfalTPSPjxCR-5">
          <mxGeometry width="50" height="50" relative="1" as="geometry">
            <mxPoint x="120" y="370" as="sourcePoint" />
            <mxPoint x="130" y="330" as="targetPoint" />
          </mxGeometry>
        </mxCell>
        <mxCell id="JhW_JWO5XfalTPSPjxCR-27" value="This will look like a list of playlists, the user can select which to add. Similar to a multiple answer structure. There will be a checker to ensure maximum song (10,000) limit is not exceeded. When they have selected all playlists, they will click continue." style="rounded=0;whiteSpace=wrap;html=1;" vertex="1" parent="1">
          <mxGeometry x="-200" y="370" width="380" height="60" as="geometry" />
        </mxCell>
        <mxCell id="JhW_JWO5XfalTPSPjxCR-28" value="" style="endArrow=classic;html=1;rounded=0;exitX=0.842;exitY=1;exitDx=0;exitDy=0;exitPerimeter=0;entryX=0.5;entryY=0;entryDx=0;entryDy=0;" edge="1" parent="1" source="JhW_JWO5XfalTPSPjxCR-27" target="JhW_JWO5XfalTPSPjxCR-29">
          <mxGeometry width="50" height="50" relative="1" as="geometry">
            <mxPoint x="140" y="490" as="sourcePoint" />
            <mxPoint x="60" y="490" as="targetPoint" />
          </mxGeometry>
        </mxCell>
        <mxCell id="JhW_JWO5XfalTPSPjxCR-29" value="Continue clicked" style="ellipse;whiteSpace=wrap;html=1;" vertex="1" parent="1">
          <mxGeometry x="75" y="460" width="90" height="50" as="geometry" />
        </mxCell>
        <mxCell id="JhW_JWO5XfalTPSPjxCR-30" value="Cancel clicked" style="ellipse;whiteSpace=wrap;html=1;" vertex="1" parent="1">
          <mxGeometry x="235" y="375" width="90" height="50" as="geometry" />
        </mxCell>
        <mxCell id="JhW_JWO5XfalTPSPjxCR-31" value="" style="endArrow=classic;html=1;rounded=0;exitX=1;exitY=0.5;exitDx=0;exitDy=0;entryX=0;entryY=0.5;entryDx=0;entryDy=0;" edge="1" parent="1" source="JhW_JWO5XfalTPSPjxCR-27" target="JhW_JWO5XfalTPSPjxCR-30">
          <mxGeometry width="50" height="50" relative="1" as="geometry">
            <mxPoint x="130" y="440" as="sourcePoint" />
            <mxPoint x="12" y="500" as="targetPoint" />
          </mxGeometry>
        </mxCell>
        <mxCell id="JhW_JWO5XfalTPSPjxCR-32" value="" style="endArrow=classic;html=1;rounded=0;exitX=0.5;exitY=0;exitDx=0;exitDy=0;entryX=0.5;entryY=1;entryDx=0;entryDy=0;" edge="1" parent="1" source="JhW_JWO5XfalTPSPjxCR-30" target="JhW_JWO5XfalTPSPjxCR-7">
          <mxGeometry width="50" height="50" relative="1" as="geometry">
            <mxPoint x="300" y="410" as="sourcePoint" />
            <mxPoint x="350" y="360" as="targetPoint" />
          </mxGeometry>
        </mxCell>
        <mxCell id="JhW_JWO5XfalTPSPjxCR-33" value="Select songs page.&lt;div&gt;Select songs from playlists to add in the form of multiple answer structure.&amp;nbsp;&lt;span style=&quot;background-color: transparent; color: light-dark(rgb(0, 0, 0), rgb(255, 255, 255));&quot;&gt;All songs will be selected at first. Option to deselect/select all. Can select/unselect individual songs, etc.&amp;nbsp;&lt;/span&gt;&lt;/div&gt;" style="rounded=0;whiteSpace=wrap;html=1;" vertex="1" parent="1">
          <mxGeometry x="-200" y="550" width="380" height="80" as="geometry" />
        </mxCell>
        <mxCell id="JhW_JWO5XfalTPSPjxCR-34" value="" style="endArrow=classic;html=1;rounded=0;exitX=0.5;exitY=1;exitDx=0;exitDy=0;entryX=0.5;entryY=0;entryDx=0;entryDy=0;" edge="1" parent="1" source="JhW_JWO5XfalTPSPjxCR-29" target="JhW_JWO5XfalTPSPjxCR-33">
          <mxGeometry width="50" height="50" relative="1" as="geometry">
            <mxPoint x="120" y="540" as="sourcePoint" />
            <mxPoint x="170" y="490" as="targetPoint" />
          </mxGeometry>
        </mxCell>
        <mxCell id="JhW_JWO5XfalTPSPjxCR-35" value="User clicks create. All songs selected are added." style="rounded=0;whiteSpace=wrap;html=1;" vertex="1" parent="1">
          <mxGeometry x="60" y="700" width="120" height="60" as="geometry" />
        </mxCell>
        <mxCell id="JhW_JWO5XfalTPSPjxCR-36" value="" style="endArrow=classic;html=1;rounded=0;exitX=0.842;exitY=0.975;exitDx=0;exitDy=0;exitPerimeter=0;entryX=0.5;entryY=0;entryDx=0;entryDy=0;" edge="1" parent="1" source="JhW_JWO5XfalTPSPjxCR-33" target="JhW_JWO5XfalTPSPjxCR-35">
          <mxGeometry width="50" height="50" relative="1" as="geometry">
            <mxPoint x="300" y="710" as="sourcePoint" />
            <mxPoint x="350" y="660" as="targetPoint" />
          </mxGeometry>
        </mxCell>
        <mxCell id="JhW_JWO5XfalTPSPjxCR-37" value="" style="endArrow=classic;html=1;rounded=0;exitX=1;exitY=0.5;exitDx=0;exitDy=0;entryX=0.5;entryY=1;entryDx=0;entryDy=0;" edge="1" parent="1" source="JhW_JWO5XfalTPSPjxCR-35" target="JhW_JWO5XfalTPSPjxCR-7">
          <mxGeometry width="50" height="50" relative="1" as="geometry">
            <mxPoint x="300" y="710" as="sourcePoint" />
            <mxPoint x="350" y="660" as="targetPoint" />
            <Array as="points">
              <mxPoint x="390" y="360" />
            </Array>
          </mxGeometry>
        </mxCell>
        <mxCell id="JhW_JWO5XfalTPSPjxCR-39" value="Search for song" style="rounded=0;whiteSpace=wrap;html=1;" vertex="1" parent="1">
          <mxGeometry x="-470" y="560" width="120" height="60" as="geometry" />
        </mxCell>
        <mxCell id="JhW_JWO5XfalTPSPjxCR-40" value="Add song(s) to list" style="rounded=0;whiteSpace=wrap;html=1;" vertex="1" parent="1">
          <mxGeometry x="-470" y="690" width="120" height="60" as="geometry" />
        </mxCell>
        <mxCell id="JhW_JWO5XfalTPSPjxCR-41" value="" style="endArrow=classic;html=1;rounded=0;entryX=0;entryY=0.5;entryDx=0;entryDy=0;" edge="1" parent="1" target="JhW_JWO5XfalTPSPjxCR-33">
          <mxGeometry width="50" height="50" relative="1" as="geometry">
            <mxPoint x="-350" y="720" as="sourcePoint" />
            <mxPoint x="-210" y="590" as="targetPoint" />
          </mxGeometry>
        </mxCell>
        <mxCell id="JhW_JWO5XfalTPSPjxCR-42" value="" style="endArrow=classic;html=1;rounded=0;exitX=0;exitY=0.5;exitDx=0;exitDy=0;entryX=1;entryY=0.5;entryDx=0;entryDy=0;" edge="1" parent="1" source="JhW_JWO5XfalTPSPjxCR-33" target="JhW_JWO5XfalTPSPjxCR-39">
          <mxGeometry width="50" height="50" relative="1" as="geometry">
            <mxPoint x="-200" y="610" as="sourcePoint" />
            <mxPoint x="-150" y="560" as="targetPoint" />
          </mxGeometry>
        </mxCell>
        <mxCell id="JhW_JWO5XfalTPSPjxCR-43" value="" style="endArrow=classic;html=1;rounded=0;exitX=0.5;exitY=1;exitDx=0;exitDy=0;entryX=0.5;entryY=0;entryDx=0;entryDy=0;" edge="1" parent="1" source="JhW_JWO5XfalTPSPjxCR-39" target="JhW_JWO5XfalTPSPjxCR-40">
          <mxGeometry width="50" height="50" relative="1" as="geometry">
            <mxPoint x="-580" y="610" as="sourcePoint" />
            <mxPoint x="-530" y="560" as="targetPoint" />
          </mxGeometry>
        </mxCell>
        <mxCell id="JhW_JWO5XfalTPSPjxCR-44" value="View spotify profile" style="rounded=0;whiteSpace=wrap;html=1;" vertex="1" parent="1">
          <mxGeometry x="550" y="40" width="120" height="60" as="geometry" />
        </mxCell>
        <mxCell id="JhW_JWO5XfalTPSPjxCR-45" value="" style="endArrow=classic;html=1;rounded=0;exitX=1;exitY=0.5;exitDx=0;exitDy=0;entryX=0;entryY=0.5;entryDx=0;entryDy=0;" edge="1" parent="1" source="JhW_JWO5XfalTPSPjxCR-1" target="JhW_JWO5XfalTPSPjxCR-44">
          <mxGeometry width="50" height="50" relative="1" as="geometry">
            <mxPoint x="520" y="10" as="sourcePoint" />
            <mxPoint x="570" y="-40" as="targetPoint" />
          </mxGeometry>
        </mxCell>
        <mxCell id="JhW_JWO5XfalTPSPjxCR-46" value="" style="endArrow=classic;html=1;rounded=0;exitX=0.5;exitY=1;exitDx=0;exitDy=0;entryX=0;entryY=0.5;entryDx=0;entryDy=0;" edge="1" parent="1" source="JhW_JWO5XfalTPSPjxCR-1" target="JhW_JWO5XfalTPSPjxCR-47">
          <mxGeometry width="50" height="50" relative="1" as="geometry">
            <mxPoint x="480" y="210" as="sourcePoint" />
            <mxPoint x="470" y="160" as="targetPoint" />
          </mxGeometry>
        </mxCell>
        <mxCell id="JhW_JWO5XfalTPSPjxCR-47" value="Search functionality" style="rounded=0;whiteSpace=wrap;html=1;" vertex="1" parent="1">
          <mxGeometry x="510" y="140" width="120" height="60" as="geometry" />
        </mxCell>
        <mxCell id="JhW_JWO5XfalTPSPjxCR-48" value="Get results" style="rounded=0;whiteSpace=wrap;html=1;" vertex="1" parent="1">
          <mxGeometry x="510" y="250" width="120" height="60" as="geometry" />
        </mxCell>
        <mxCell id="JhW_JWO5XfalTPSPjxCR-49" value="" style="endArrow=classic;html=1;rounded=0;exitX=0.5;exitY=1;exitDx=0;exitDy=0;entryX=0.5;entryY=0;entryDx=0;entryDy=0;" edge="1" parent="1" source="JhW_JWO5XfalTPSPjxCR-47" target="JhW_JWO5XfalTPSPjxCR-48">
          <mxGeometry width="50" height="50" relative="1" as="geometry">
            <mxPoint x="520" y="210" as="sourcePoint" />
            <mxPoint x="570" y="160" as="targetPoint" />
          </mxGeometry>
        </mxCell>
        <mxCell id="JhW_JWO5XfalTPSPjxCR-50" value="Add item to playlist" style="rounded=0;whiteSpace=wrap;html=1;" vertex="1" parent="1">
          <mxGeometry x="510" y="375" width="120" height="60" as="geometry" />
        </mxCell>
        <mxCell id="JhW_JWO5XfalTPSPjxCR-51" value="" style="endArrow=classic;html=1;rounded=0;exitX=0.5;exitY=1;exitDx=0;exitDy=0;entryX=0.5;entryY=0;entryDx=0;entryDy=0;" edge="1" parent="1" source="JhW_JWO5XfalTPSPjxCR-48" target="JhW_JWO5XfalTPSPjxCR-50">
          <mxGeometry width="50" height="50" relative="1" as="geometry">
            <mxPoint x="570" y="360" as="sourcePoint" />
            <mxPoint x="620" y="310" as="targetPoint" />
          </mxGeometry>
        </mxCell>
      </root>
    </mxGraphModel>
  </diagram>
</mxfile>
